<svg width="32" height="32" viewBox="0 0 32 32" fill="none" xmlns="http://www.w3.org/2000/svg">
  <rect width="32" height="32" rx="6" fill="white"/>
  <g transform="translate(2, 1) scale(0.15)">
    <path d="M7.15504 0.708128C9.78602 -0.976353 11.8383 -0.028095 21.9939 7.65735C27.3084 11.7105 36.8325 16.6582 41.2 17.7111C49.1454 19.5534 57.091 19.2376 66.1941 16.6583C83.9269 11.6575 96.9243 11.8677 120.919 17.5001C129.654 19.5531 137.915 19.5532 143.756 17.5529C149.333 15.6052 153.912 12.8161 161.015 7.13098C164.278 4.49907 168.224 1.7616 169.75 1.02453C172.17 -0.133445 172.749 -0.186289 174.064 0.339964C177.8 1.86652 178.748 8.44683 176.432 17.3956C174.222 26.1864 170.171 34.5036 165.803 39.1359C164.541 40.4518 163.541 41.9259 163.541 42.4523C163.541 42.9272 164.488 46.1906 165.593 49.6114C169.749 62.0869 169.75 73.0357 165.645 85.1427C164.488 88.564 163.541 91.9857 163.541 92.8282C163.541 93.7758 164.488 95.6186 166.224 97.9874C171.434 105.094 176.222 116.412 179.59 129.571C184.22 147.469 184.325 162.313 180.063 180.368C173.538 208.162 163.803 225.323 142.756 246.432C129.496 259.697 116.499 269.436 103.028 276.068C92.0834 281.543 92.399 281.437 86.5584 279.174C72.8246 273.699 54.7235 261.224 39.99 247.011C27.1509 234.641 17.9427 222.481 11.9441 210.058C8.41859 202.741 2.9981 187.001 1.78785 180.526C-0.316889 169.367 -0.631943 144.416 1.20973 134.309C3.05144 123.939 9.15525 108.884 15.9431 98.0402C17.5217 95.4608 18.8367 92.8808 18.8367 92.2491C18.8366 91.6174 18.3627 90.249 17.7839 89.1437C15.1004 84.1428 13.7332 72.0354 14.6277 60.7179C15.2065 52.98 15.6798 50.769 17.6267 46.6105C18.4685 44.663 18.8898 43.1365 18.6795 42.3468C18.469 41.6625 16.6271 38.8194 14.575 36.0822C10.0497 30.1339 7.10242 24.186 5.36598 17.3429C3.2612 8.97316 3.89266 2.76111 7.15504 0.708128ZM91.9998 101C89.8174 101 87.7023 101.731 85.988 103.068L85.6502 103.343L85.6423 103.35C72.904 114.476 54.7535 123.223 40.1902 123.493L39.4998 123.5C37.2455 123.5 35.0831 124.395 33.489 125.988C31.895 127.582 30.9999 129.744 30.9998 131.998V184.489C30.9998 203.5 37.667 217.811 48.3191 228.719C58.9388 239.593 73.4748 247.042 89.1755 252.465V252.466C91.0076 253.148 93.0193 253.178 94.8709 252.551L94.8787 252.548C110.55 247.086 125.076 239.617 135.691 228.728C146.333 217.811 153 203.5 153 184.489V131.998C153 129.744 152.104 127.582 150.511 125.988C148.916 124.395 146.754 123.5 144.5 123.5C129.823 123.5 111.373 114.727 98.3582 103.351L97.7 104.103L98.3582 103.35L98.3494 103.343L98.0115 103.068C96.2972 101.731 94.1821 101 91.9998 101ZM160.384 24.4493C160.384 23.765 159.857 23.9752 155.279 26.3966C152.806 27.66 145.281 30.5026 137.915 32.9239C123.445 37.7141 118.13 39.9782 112.184 44.0841C101.818 51.2958 97.2922 60.3495 97.9236 72.7198C98.3446 80.9317 100.66 86.2489 106.027 91.5655C112.815 98.356 123.076 101.251 132.442 99.0402C142.44 96.6714 150.333 88.5646 154.385 76.6681C155.753 72.7201 155.753 62.9814 154.437 58.507C153.017 53.7703 152.491 52.5594 151.596 52.2433C150.439 51.7696 138.654 56.5062 137.284 57.9279C136.232 59.0333 136.231 59.1916 137.02 63.0343C138.283 69.1405 137.231 73.6678 133.706 77.2999C128.391 82.7745 118.761 82.8793 114.289 77.5626C110.5 73.0882 109.606 66.2452 112.079 60.8234C114.605 55.3489 119.182 51.9271 131.127 46.6632C142.65 41.6098 149.702 37.2405 155.069 31.8712C157.279 29.6605 160.383 25.3448 160.384 24.4493ZM31.781 27.7657C24.8879 24.7653 22.5203 24.0281 22.5203 24.923C22.5207 26.1341 28.5188 33.0293 31.8338 35.6613C37.0431 39.8198 41.7265 42.4516 50.7244 46.3995C66.8784 53.4532 71.6667 58.1912 71.6668 67.1925C71.6668 71.8248 70.8245 74.0361 67.9304 77.1945C65.2995 80.1421 62.5632 81.4054 58.5642 81.4054C52.8814 81.4052 47.0408 77.4045 45.7254 72.6144C44.9888 70.0349 44.9887 64.8238 45.7254 61.3497C46.462 57.9281 46.1992 57.6645 40.4636 55.6642C38.0959 54.7694 35.3073 53.6114 34.3074 53.0323C33.3076 52.4007 32.1494 51.9269 31.781 51.9269C29.4132 51.9274 27.2556 59.3499 27.2556 67.4562C27.2557 73.7729 28.4667 79.2478 31.2029 84.9855C35.4652 94.0392 44.7784 99.3028 56.4597 99.3029C70.5617 99.3029 80.2438 91.9337 83.3484 78.9318C84.6112 73.6679 84.5064 65.1926 83.0857 60.8761C80.7704 53.6118 75.6661 47.1365 68.6677 42.6095C63.8268 39.4512 60.7746 38.1357 49.0935 34.2931C43.6211 32.4507 35.7801 29.5555 31.781 27.7657ZM97.3982 30.8185C94.8199 30.3974 85.4533 30.3445 82.9275 30.713C81.1911 30.9762 81.0856 31.6085 82.4011 33.7667C83.4013 35.3464 90.2416 43.0837 90.9783 43.3995C91.5572 43.6625 99.8699 34.3988 100.239 33.0822C100.607 31.503 100.345 31.2922 97.3982 30.8185Z" fill="#1f2937"/>
  </g>
</svg>
